<svg width="42" height="42" viewBox="0 0 42 42" fill="none" xmlns="http://www.w3.org/2000/svg">
<g clip-path="url(#clip0_245_706)">
<path d="M25.6644 0.0471286C25.1851 -0.141289 24.5451 0.280409 24.1523 0.528422C23.6851 0.822898 23.2589 1.18723 22.8965 1.6041C22.4081 2.16518 22.037 2.80799 21.7951 3.49787C21.5535 2.86149 21.2292 2.25395 20.7665 1.78006C20.125 1.12285 19.1679 0.685758 18.2473 0.95236C17.3802 1.20326 16.6979 2.00047 16.8223 2.93202C16.8922 3.45625 17.1748 3.91352 17.4805 4.33328C17.8599 4.85334 18.2534 5.36375 18.6427 5.87588C19.5444 7.06082 20.4644 8.23075 21.3939 9.39395C21.5131 9.54295 21.7313 9.4936 21.8573 9.39395C22.901 8.56757 23.7879 7.5777 24.5925 6.52097C25.3827 5.48278 26.2604 4.34681 26.55 3.04744C26.6753 2.48636 26.6865 1.89195 26.5375 1.33438C26.4145 0.876481 26.1402 0.233684 25.6643 0.047227L25.6644 0.0471286ZM25.7728 3.43157C25.3773 4.46558 24.6519 5.39647 23.9796 6.26518C23.2939 7.1512 22.5306 7.97537 21.6715 8.69503C20.8861 7.70524 20.1081 6.70995 19.3311 5.71368C18.9043 5.16638 18.4748 4.62004 18.058 4.06502C17.7276 3.62506 17.321 3.08352 17.4289 2.49871C17.5209 2.00012 17.983 1.63 18.4527 1.50474C18.9769 1.36471 19.522 1.53102 19.9613 1.82678C20.8672 2.43625 21.2004 3.43312 21.5606 4.40273C21.5273 4.59466 21.501 4.78853 21.4879 4.98464C21.4622 5.37525 22.0627 5.3698 22.0938 4.98464C22.0957 4.96445 22.1009 4.94523 22.1028 4.92504C22.1521 4.87729 22.1816 4.80712 22.1617 4.71323C22.1569 4.69176 22.1499 4.66965 22.1451 4.64818C22.2662 3.84261 22.5725 3.07228 23.0455 2.40676C23.3144 2.02929 23.639 1.68707 23.9973 1.39417C24.3331 1.11987 24.7875 0.780535 25.2143 0.669669C25.7449 0.531242 25.9596 1.45249 26.0051 1.85338C26.0638 2.39107 25.9651 2.92938 25.7728 3.4315L25.7728 3.43157ZM5.00572 14.5353C4.95637 12.3166 6.45185 10.1502 7.94473 8.62907C9.25469 7.29443 10.8318 6.25689 12.4943 5.40615C11.839 5.37507 11.1837 5.34398 10.5284 5.31322C10.0865 5.29239 10.1717 4.66563 10.5864 4.64768C11.333 4.61596 12.0796 4.57558 12.8259 4.53841C13.1454 4.52303 13.471 4.48714 13.7908 4.49131C13.9834 4.49355 14.1862 4.53297 14.3096 4.69991C14.4736 4.92165 14.4025 5.19947 14.3679 5.44877C14.3208 5.79036 14.2737 6.13225 14.2279 6.47449C14.1343 7.17143 14.1093 7.93309 13.876 8.59959C13.784 8.86139 13.3156 8.85466 13.2989 8.5496C13.2672 7.98019 13.3902 7.41593 13.4729 6.85385C13.5158 6.56098 13.5594 6.26842 13.6011 5.97554C13.6184 5.85442 13.6357 5.7333 13.653 5.61249C11.7829 6.49145 9.99939 7.56844 8.5225 9.02925C7.75025 9.79317 7.07482 10.6667 6.54637 11.6164C6.01733 12.5655 5.68283 13.59 5.3127 14.6052C5.24669 14.784 5.00989 14.7036 5.00572 14.5353ZM41.8542 18.8247C41.7545 18.3607 41.5126 17.7048 41.0463 17.4948C40.5769 17.283 39.9171 17.6721 39.5121 17.9002C39.0308 18.1716 38.5874 18.5145 38.2044 18.9121C37.6885 19.4482 37.2861 20.0715 37.0108 20.7486C36.8009 20.1016 36.5074 19.4784 36.0688 18.9817C35.4606 18.2937 34.5268 17.8096 33.5937 18.03C32.7154 18.2376 31.9938 18.9996 32.072 19.9362C32.1155 20.4633 32.3748 20.9344 32.66 21.3686C33.0131 21.9069 33.3809 22.4359 33.744 22.9672C34.5855 24.1954 35.4465 25.4095 36.3171 26.6176C36.4286 26.772 36.6494 26.7339 36.7798 26.641C37.8632 25.8671 38.7982 24.9231 39.6544 23.9077C40.4952 22.9102 41.4283 21.8188 41.7821 20.5358C41.9347 19.9821 41.9759 19.3886 41.8542 18.8247ZM40.9868 20.8805C40.5407 21.8938 39.7697 22.7874 39.0548 23.6212C38.3255 24.4719 37.5225 25.2573 36.6292 25.9332C35.8941 24.9059 35.1664 23.8731 34.4397 22.839C34.0407 22.2709 33.6383 21.7044 33.2502 21.1295C32.9426 20.6738 32.5632 20.1127 32.6994 19.5337C32.8157 19.0399 33.2957 18.6936 33.7716 18.5917C34.3022 18.4779 34.8376 18.6708 35.2622 18.9881C36.1364 19.6421 36.4203 20.654 36.7314 21.6403C36.6891 21.8306 36.6526 22.0226 36.6295 22.218C36.5843 22.6067 37.1842 22.6314 37.2342 22.2478C37.2364 22.2283 37.2431 22.2091 37.246 22.1889C37.2979 22.1437 37.3306 22.0751 37.3152 21.9809C37.3117 21.9594 37.305 21.9367 37.3015 21.9152C37.4623 21.1167 37.8065 20.3624 38.3121 19.7215C38.5989 19.3579 38.9398 19.0323 39.3131 18.7574C39.6624 18.5004 40.1325 18.1838 40.5647 18.0937C41.1015 17.9822 41.27 18.9125 41.2953 19.3156C41.3296 19.8562 41.2037 20.3887 40.9868 20.8805ZM29.2834 5.10427C29.111 5.02064 29.2154 4.79313 29.383 4.80659C31.5953 4.98315 33.598 6.69142 34.9595 8.33139C36.1538 9.77014 37.0257 11.4447 37.7025 13.185C37.8002 12.5361 37.8976 11.8876 37.9953 11.2387C38.061 10.8016 38.6756 10.9493 38.6513 11.3639C38.607 12.1099 38.5715 12.8565 38.5314 13.6032C38.5148 13.9226 38.5164 14.2501 38.4802 14.5673C38.458 14.7586 38.3978 14.9567 38.2196 15.0624C37.9822 15.2031 37.7134 15.1041 37.4682 15.0445C37.133 14.9628 36.7979 14.8811 36.4624 14.8006C35.7785 14.6366 35.0236 14.534 34.3837 14.2347C34.1328 14.1171 34.1869 13.6515 34.4929 13.6653C35.063 13.6916 35.6116 13.8717 36.1624 14.0104C36.4492 14.0832 36.736 14.1559 37.0228 14.2274C37.1413 14.2572 37.2602 14.2863 37.3788 14.3161C36.695 12.3662 35.8051 10.4825 34.5023 8.8649C33.8207 8.01867 33.0206 7.25857 32.1298 6.63529C31.2399 6.01365 30.2555 5.57661 29.2834 5.10427ZM24.5925 33.4658C23.6713 33.1992 22.7147 33.6362 22.0732 34.2935C21.6105 34.7674 21.2862 35.3753 21.0446 36.0113C20.8024 35.3214 20.4316 34.6786 19.9433 34.1175C19.5809 33.7006 19.1544 33.3363 18.6875 33.0418C18.2946 32.7938 17.6553 32.3728 17.1753 32.5605C16.6995 32.747 16.4245 33.3904 16.3024 33.8483C16.1534 34.4059 16.1646 35.0003 16.2899 35.5614C16.5796 36.8608 17.4575 37.9967 18.2474 39.0349C19.0524 40.0914 19.939 41.0809 20.9827 41.9079C21.1086 42.0076 21.3268 42.0569 21.446 41.9079C22.3756 40.7444 23.2962 39.5745 24.1973 38.3898C24.5866 37.8778 24.9807 37.3673 25.3595 36.8472C25.6655 36.4275 25.9481 35.9702 26.0177 35.446C26.1413 34.5132 25.4588 33.7166 24.5924 33.4657L24.5925 33.4658ZM24.7815 36.5775C24.3647 37.1325 23.9353 37.6789 23.5084 38.2262C22.7314 39.2227 21.9534 40.2177 21.168 41.2075C20.3092 40.4878 19.546 39.6637 18.8599 38.7777C18.1873 37.909 17.4621 36.9787 17.0667 35.9441C16.8748 35.4413 16.7752 34.9036 16.8354 34.3656C16.8803 33.9648 17.0953 33.0435 17.6262 33.1819C18.053 33.2928 18.5068 33.6321 18.8432 33.9064C19.2021 34.1993 19.5267 34.5415 19.795 34.919C20.2679 35.5839 20.5743 36.3549 20.6954 37.1604C20.6906 37.1819 20.6829 37.204 20.6788 37.2255C20.6586 37.3191 20.6884 37.3896 20.7377 37.4373C20.7396 37.4575 20.7448 37.4767 20.7467 37.4969C20.7778 37.8821 21.3783 37.8875 21.3526 37.4969C21.3395 37.3008 21.3126 37.1069 21.2799 36.915C21.6401 35.9454 21.9733 34.9484 22.8792 34.339C23.3185 34.0433 23.8636 33.877 24.3878 34.017C24.8576 34.1429 25.3199 34.5124 25.4116 35.011C25.5186 35.5967 25.112 36.1382 24.7816 36.5776L24.7815 36.5775ZM37.0337 29.2033C36.9562 31.4214 35.3396 33.4991 33.7624 34.9324C32.3785 36.1901 30.7446 37.1357 29.037 37.8906C29.6894 37.9592 30.3421 38.0271 30.9945 38.0957C31.4345 38.1415 31.314 38.7628 30.8984 38.7564C30.1511 38.7458 29.4035 38.7433 28.6563 38.7372C28.3368 38.735 28.0093 38.7516 27.6902 38.7295C27.4976 38.7164 27.298 38.6651 27.1839 38.4917C27.033 38.261 27.1195 37.988 27.1685 37.7403C27.2352 37.4016 27.3015 37.0629 27.3672 36.7242C27.5002 36.0337 27.5688 35.2745 27.8395 34.6221C27.9456 34.3658 28.4131 34.3991 28.4131 34.7058C28.4125 35.2765 28.2574 35.8321 28.143 36.3891C28.0834 36.6787 28.0238 36.9687 27.9648 37.2584C27.9405 37.3783 27.9164 37.4981 27.8921 37.618C29.8092 36.8476 31.6517 35.8738 33.209 34.5001C34.0236 33.7817 34.7474 32.9479 35.3299 32.0296C35.9119 31.1118 36.3044 30.1082 36.7325 29.1162C36.8078 28.9409 37.0398 29.0345 37.0337 29.2033ZM8.25717 21.6879C8.62086 21.1566 8.98872 20.6275 9.34121 20.0892C9.62608 19.6544 9.88499 19.184 9.92921 18.6569C10.0068 17.7206 9.28577 16.9586 8.40745 16.7507C7.47434 16.5299 6.54058 17.0144 5.9324 17.7024C5.4934 18.1984 5.20021 18.8217 4.99035 19.4693C4.71414 18.7919 4.31168 18.1687 3.79672 17.6328C3.4138 17.2352 2.97034 16.8917 2.48906 16.6209C2.08403 16.3931 1.42454 16.0037 0.954827 16.2155C0.488595 16.4261 0.246348 17.082 0.147008 17.5453C0.0258809 18.1093 0.066579 18.7027 0.219747 19.2568C0.573827 20.5401 1.50665 21.6312 2.34747 22.6287C3.20372 23.6441 4.13871 24.5881 5.22209 25.3619C5.35284 25.4549 5.57329 25.4936 5.6848 25.3385C6.5545 24.1302 7.41602 22.9161 8.25717 21.6879ZM5.37196 24.6538C4.47823 23.9777 3.67556 23.1929 2.9463 22.3418C2.23141 21.5077 1.46112 20.6143 1.01438 19.6012C0.79745 19.1087 0.671516 18.5768 0.704845 18.0365C0.729839 17.634 0.89871 16.7032 1.43543 16.8146C1.86706 16.9047 2.33745 17.2206 2.68706 17.4783C3.05973 17.7532 3.40067 18.0781 3.68809 18.4425C4.19374 19.0833 4.53785 19.8376 4.69872 20.6361C4.69519 20.6576 4.68846 20.6804 4.68494 20.7018C4.66956 20.796 4.70288 20.8652 4.75415 20.9098C4.75704 20.9293 4.76377 20.9486 4.76601 20.9688C4.816 21.3523 5.41585 21.327 5.37067 20.9389C5.34792 20.7435 5.31171 20.5512 5.26877 20.3612C5.57991 19.3749 5.86382 18.3623 6.73795 17.709C7.16253 17.3917 7.69796 17.1985 8.22862 17.3126C8.70447 17.4145 9.18445 17.7615 9.30077 18.2546C9.43728 18.8337 9.0582 19.3947 8.74995 19.8504C8.36126 20.4259 7.95912 20.9924 7.56049 21.5599C6.83502 22.593 6.10698 23.6258 5.3719 24.6537L5.37196 24.6538ZM15.0459 37.9363C12.8288 37.8289 10.7736 36.1845 9.36139 34.5875C8.12288 33.1868 7.19913 31.5404 6.46757 29.8219C6.39003 30.4737 6.31313 31.1248 6.23558 31.7766C6.18367 32.2159 5.56427 32.0867 5.57612 31.6715C5.59695 30.9242 5.60945 30.1773 5.62547 29.43C5.63252 29.1106 5.62002 28.7831 5.6463 28.4645C5.66232 28.2726 5.71615 28.0727 5.89079 27.9618C6.12343 27.8141 6.39579 27.9044 6.64222 27.9563C6.97963 28.0271 7.31737 28.0989 7.65547 28.1685C8.34408 28.3111 9.10192 28.3896 9.75079 28.6693C10.0055 28.7789 9.96612 29.2458 9.65946 29.2416C9.08877 29.2333 8.53473 29.0705 7.97971 28.9481C7.69036 28.885 7.40196 28.8205 7.11264 28.7577C6.9928 28.7315 6.87359 28.7058 6.75375 28.6802C7.49844 30.6073 8.44663 32.4629 9.79949 34.0391C10.5067 34.8633 11.3309 35.5984 12.2406 36.1928C13.1506 36.7872 14.1481 37.1935 15.135 37.6347C15.311 37.7139 15.2141 37.9443 15.0459 37.9363Z" fill="black"/>
</g>
<defs>
<clipPath id="clip0_245_706">
<rect width="42" height="42" fill="white"/>
</clipPath>
</defs>
</svg>
