<svg xmlns="http://www.w3.org/2000/svg" viewBox="0 0 138.78 92.46"><defs><style>.cls-1{fill:#df786c;}.cls-2{fill:#cfac53;}.cls-3{fill:#6ca89f;}</style></defs><g id="Layer_2" data-name="Layer 2"><g id="Layer_1-2" data-name="Layer 1"><path class="cls-1" d="M66.9,57c.52-.08.16-.05,0,0,.35,0,.28,0,.06,0s-.35-.2,0,0l-.37-.21c-.08,0-.38-.27,0,0l-.33-.29c-.22-.21-.42-.42-.62-.65a24.55,24.55,0,0,0-2.21-2.57,6.15,6.15,0,0,0-4.15-1.71,6.63,6.63,0,0,0-4.39,2A12.38,12.38,0,0,0,52.63,57a8.85,8.85,0,0,0-1.28,4.38,5.11,5.11,0,0,0,2.51,4.16,14.07,14.07,0,0,0,3.79,1.36q4.92,1.38,9.86,2.73a2.5,2.5,0,0,0,1.33-4.82l-7.57-2.09c-1.26-.35-2.53-.69-3.79-1.06l-.69-.22c-.44-.15.25.17-.15-.07a3.79,3.79,0,0,0-.34-.2s.3.3.12.1a2,2,0,0,0-.21-.2c.17.23.2.26.11.11s-.07-.12,0,0,0-.13,0-.13c-.16.12.16.33,0,0,0,0-.1.4,0,.1,0-.11.05-.23.08-.34s.09-.31.14-.46.16-.38.06-.15.1-.2.12-.25l.21-.42c.25-.49.5-1,.78-1.44a8.09,8.09,0,0,1,.46-.68c-.25.32.19-.19.28-.28s.4-.35.17-.17.08,0,.11-.06l.38-.22s-.36.1-.09.05a1.86,1.86,0,0,0,.31-.1c-.33.14-.23,0,0,0,0,0,.41,0,.09,0s.24.08.27.09-.37-.21-.15-.06l.26.15c.38.2.08,0,0,0l.23.2a9,9,0,0,1,1.07,1.16,15.48,15.48,0,0,0,2.44,2.61,5.84,5.84,0,0,0,4.71,1.18A2.5,2.5,0,0,0,70,58.78,2.59,2.59,0,0,0,66.9,57Z"/><path class="cls-1" d="M69.78,56.58a92.3,92.3,0,0,0-7.94-6.31,7.39,7.39,0,0,0-8.93.42c-4.53,3.59-6.65,10.16-6.07,15.79.15,1.46,1.5,3,3.16,2.41,4.69-1.73,6.39-6.16,7.47-10.67l-4.82-1.33L51.3,65.48A2.54,2.54,0,0,0,55,68.31a4.21,4.21,0,0,0,2.35-4.66,3.72,3.72,0,0,0-4.51-2.76,4,4,0,0,0-2.65,4.55,5.68,5.68,0,0,0,3.22,3.79c3.17,1.63,6.75,1.75,10.24,1.84,2.68.07,5.92.1,8.11,1.89V69.43a8.12,8.12,0,0,1-2.91,2.07l2.82,1.15a17.41,17.41,0,0,0-4.38-5.2,2.51,2.51,0,0,0-3.93,3A22.52,22.52,0,0,0,66,75a2.56,2.56,0,0,0,3.93.5l6.86-5.61-3.93-3-1.16,1.64c-1.24,1.75.83,4.36,2.82,3.67,4.06-1.42,8.23-2.68,12.22-4.28a6.32,6.32,0,0,0,4.11-4,6.88,6.88,0,0,0-1.24-5.79c-1.1-1.53-2.71-2.59-3.81-4.1-.94-1.27-.57-2.83-1.07-4.25-1.48-4.22-6.55-3.69-9.75-1.93a12,12,0,0,0-6.08,9.56,2.46,2.46,0,0,0,1.53,2.29,2.59,2.59,0,0,0,2.73-.52l2.61-2.11a2.5,2.5,0,0,0,.39-3,2.62,2.62,0,0,0-2.82-1.15l-10,1.73,2.43,4.18a5,5,0,0,1,2.12-1.33l-1.32-4.82a52.87,52.87,0,0,0-10,5c-1.66,1.07-1.64,4.16.6,4.57,2.53.47,6,.78,8.31-.65,3.09-1.93,1.31-6-1.79-6.57-2.63-.47-5.64-.41-7.46,1.83a4.46,4.46,0,0,0,1.25,6.77c2,1.14,4.61,1.2,6.84,1.13a25.75,25.75,0,0,0,7.32-1.32A24.74,24.74,0,0,0,78.12,60a6.91,6.91,0,0,0,2.62-2.61,3,3,0,0,0-1.57-3.85c-1.38-.6-3-.09-4.36.24A36.47,36.47,0,0,0,70.59,55a43.49,43.49,0,0,0-8.3,4c-2,1.25-1.31,4.76,1.27,4.65a32,32,0,0,0,20.08-8.19c1.3-1.17.75-3.91-1.1-4.18A17.21,17.21,0,0,0,74,52c-2.47.9-6.92,2.86-6.35,6.15.63,3.56,4.79,2.84,7.27,2a19.23,19.23,0,0,0,7.42-4.51c2.06-2-.57-5.3-3-3.93-4.54,2.52-9.08,5.13-12.76,8.84-1.66,1.68-.29,4,1.77,4.27,6.28.73,12.31-1.57,18-3.91a2.58,2.58,0,0,0,1.75-3.07A2.54,2.54,0,0,0,85,56.1a36.5,36.5,0,0,0-14,6.27A2.52,2.52,0,0,0,72.31,67a22.81,22.81,0,0,0,16.5-5.5c2-1.68-.16-4.76-2.43-4.18A54.71,54.71,0,0,0,69,65.22c-1.94,1.33-1.36,4.7,1.27,4.66a27.48,27.48,0,0,0,15.4-5,2.52,2.52,0,0,0-1.26-4.66,50,50,0,0,0-19.54,2.29,2.52,2.52,0,0,0,0,4.82,25.45,25.45,0,0,0,17.81,0,2.56,2.56,0,0,0,1.75-3.07,2.52,2.52,0,0,0-3.08-1.75,21.21,21.21,0,0,1-15.15,0v4.82a46.25,46.25,0,0,1,18.21-2.11l-1.26-4.65a23,23,0,0,1-12.88,4.3l1.26,4.65a50.64,50.64,0,0,1,16.17-7.36L85.27,58a17.85,17.85,0,0,1-13,4l1.26,4.66a33.17,33.17,0,0,1,12.79-5.77L85,56.1c-5.32,2.18-10.84,4.41-16.69,3.73l1.76,4.27c3.39-3.41,7.58-5.75,11.75-8.06l-3-3.93a14.28,14.28,0,0,1-3.93,2.73,12.51,12.51,0,0,1-2.05.73c-.39.11-.8.16-1.18.28-1,.29-.06-.71.63.69l.34,1.26v-.35l-.34,1.26c.49-1.12,2.91-1.88,4-2.21a11.66,11.66,0,0,1,4.88-.38l-1.1-4.18a26.61,26.61,0,0,1-16.55,6.73l1.26,4.66a37.13,37.13,0,0,1,6.48-3.27c1.1-.42,2.21-.78,3.34-1.1q1-.27,1.92-.48a4.68,4.68,0,0,0,.86-.18c.41-.22.35.24-.28-.2l-.9-.9.1.21-.25-1.92c0-.39.46-.52-.06-.18l-.44.35c-.42.32-.87.61-1.32.89a20.49,20.49,0,0,1-2.81,1.5,19.89,19.89,0,0,1-5.86,1.53A21.68,21.68,0,0,1,60,59.3a2.34,2.34,0,0,1-.25-.15c.09-.08.24.51.23.5.33.32-.13,0,.21.13a8.16,8.16,0,0,0,1.28-.06,5.07,5.07,0,0,0,.86.07c.79-.13-.56,1.11-.38-.92l.35-1.26c.62-.36.75-.48.38-.36-.2,0-.4.1-.6.13a9.28,9.28,0,0,1-1.17.12,11.38,11.38,0,0,1-2.54-.16l.6,4.57a46.21,46.21,0,0,1,8.82-4.46,2.57,2.57,0,0,0,1.75-3.08,2.53,2.53,0,0,0-3.07-1.74,10.18,10.18,0,0,0-4.33,2.62c-1.87,1.9.07,4.58,2.43,4.18l10-1.73-2.43-4.18-2.61,2.11,4.27,1.76a6.86,6.86,0,0,1,4.47-5.63,4.06,4.06,0,0,1,1.65-.3c.16,0,.08,0,0-.22a1.85,1.85,0,0,1,.15.74A9.7,9.7,0,0,0,82,57.24c1,1.32,2.48,2.3,3.46,3.65.71,1,.9,1.74-.25,2.27-1.87.86-4,1.39-5.91,2.07l-6.13,2.14L76,71l1.16-1.64a2.48,2.48,0,0,0-.65-3.22,2.55,2.55,0,0,0-3.28.19L66.34,72l3.93.51A21.86,21.86,0,0,1,67.65,68l-3.93,3a13.79,13.79,0,0,1,3.61,4.18,2.5,2.5,0,0,0,2.82,1.15A13.79,13.79,0,0,0,75.27,73a2.51,2.51,0,0,0,0-3.53c-3.18-2.6-7-3.22-11-3.34a37.44,37.44,0,0,1-5.6-.35A10.72,10.72,0,0,1,56.09,65c-.33-.15-.62-.35-.94-.52-.28-.32-.33-.34-.12-.06a1.12,1.12,0,0,1-.59,1.25H53.11q-1.17-1.1-.45-1.74.27-.24-.21.06l3.67,2.82,1.35-8.59a2.57,2.57,0,0,0-1.75-3.07,2.52,2.52,0,0,0-3.07,1.74c-.59,2.44-1.26,6.17-4,7.18l3.17,2.41A14.12,14.12,0,0,1,55.55,55a3.16,3.16,0,0,1,2-1.11A4.39,4.39,0,0,1,60,55.07c2.13,1.6,4.16,3.37,6.23,5a2.58,2.58,0,0,0,3.54,0,2.53,2.53,0,0,0,0-3.54Z"/><path class="cls-2" d="M69,50.63c-.25-4.06-3-7-6.38-8.89s-7.1-3.91-10.91-2.45a31.71,31.71,0,0,0-9.06,5.85,17.78,17.78,0,0,0-5.35,8.75c-1,3.76-1.23,7.71-2.67,11.36a2.5,2.5,0,1,0,4.82,1.33C40.82,63.18,41.09,59.52,42,56a13.89,13.89,0,0,1,5.31-8.18c1.39-1.05,2.89-2,4.38-2.91,1.7-1,3-1.43,4.92-.65a25.46,25.46,0,0,1,4.85,2.61A5.37,5.37,0,0,1,64,50.63c.2,3.2,5.21,3.22,5,0Z"/><path class="cls-2" d="M66.84,46.18c-4.7-2.44-10.15-3.51-15.05-1-4.57,2.35-7.19,7-9.48,11.4a2.5,2.5,0,1,0,4.32,2.52c1.78-3.42,3.66-7.24,7.12-9.28s7.29-1,10.56.67c2.85,1.48,5.39-2.84,2.53-4.32Z"/><path class="cls-2" d="M69.05,76.48a15.83,15.83,0,0,0-7.55-5.87C58.39,69.35,55,69.24,51.86,68c-2.37-1-3.34-3.25-3.49-5.69-.23-3.49.72-6.94.64-10.44-.07-3.21-5.07-3.23-5,0,.08,3.62-.94,7.2-.62,10.81.29,3.18,1.36,6.35,3.94,8.39,5.09,4,13.49,2,17.4,7.94,1.76,2.68,6.09.17,4.32-2.52Z"/><path class="cls-2" d="M67.41,76.15C62.73,73.92,58.08,72,52.8,72s-10.24,1.5-15.16,3c-3.07.94-1.76,5.76,1.33,4.82,4.34-1.33,8.78-2.73,13.36-2.82s8.52,1.56,12.56,3.48a2.57,2.57,0,0,0,3.42-.89,2.51,2.51,0,0,0-.9-3.42Z"/><path class="cls-2" d="M35.72,76.36a78.48,78.48,0,0,1-7.17,12.2A2.5,2.5,0,0,0,32,92a20.53,20.53,0,0,0,5.4-6.22,53,53,0,0,0,3.45-8,2.5,2.5,0,0,0-1.74-3.07A2.57,2.57,0,0,0,36,76.42c-.44,1.18-.88,2.36-1.35,3.53-.07.17-.12.3,0,.06-.06.14-.12.29-.19.43l-.39.86c-.28.59-.58,1.18-.9,1.75s-.56,1-.87,1.44q-.22.35-.48.69s-.29.4-.11.17-.1.12-.13.16c-.36.43-.73.85-1.12,1.24l-.61.58-.32.27c-.08.07-.47.37-.07.07l3.42,3.42A78.67,78.67,0,0,0,40,78.89a2.5,2.5,0,0,0-4.32-2.53Z"/><path class="cls-2" d="M35.16,66A59.13,59.13,0,0,0,17,81.31a2.56,2.56,0,0,0,0,3.53,2.5,2.5,0,0,0,3.53,0A55.44,55.44,0,0,1,37.68,70.28,2.5,2.5,0,0,0,35.16,66Z"/><path class="cls-2" d="M17.72,85.69,28.66,91.5a2.5,2.5,0,0,0,2.53-4.32,16.48,16.48,0,0,1-5.44-6.33l-2.82,3.68c6.23,1.06,10.26-3.6,13.35-8.31,1.26-1.92-.81-4.14-2.82-3.68-3,.7-6.91,1.61-8.66,4.45-2,3.3.09,6.71,2.39,9.15a2.55,2.55,0,0,0,3.54,0,19.05,19.05,0,0,0,3.47-4.92,15.46,15.46,0,0,1,2.94-4.48c1.48-1.3,3.6-1.48,5.47-1.73A22.84,22.84,0,0,0,46,74.39c1.72-.52,2.18-1.89,2.89-3.37a2.54,2.54,0,0,0-1.49-3.67c-1-.28-2.55-.55-3.21-1.49s.18-2.55.47-3.49a55.55,55.55,0,0,1,3.56-8.77c1.45-2.86-2.86-5.4-4.32-2.52a51.35,51.35,0,0,0-4.68,12.15,6.6,6.6,0,0,0,1.47,6.2,11.2,11.2,0,0,0,5.38,2.74l-1.5-3.67-1,2.1,1.5-1.15c-2.08.63-4.25.68-6.36,1.16a10.77,10.77,0,0,0-5.55,3.06c-2.47,2.65-3.33,6.44-5.95,8.93h3.54c-.71-.75-2.54-2.34-1.3-3.34,1.43-1.15,3.62-1.49,5.36-1.9L32,73.69c-1.61,2.46-4.16,6.62-7.7,6a2.54,2.54,0,0,0-2.83,3.68,21.66,21.66,0,0,0,7.23,8.12l2.53-4.32L20.25,81.37c-2.84-1.5-5.37,2.81-2.53,4.32Z"/><path class="cls-2" d="M54.05,42.67a35.93,35.93,0,0,0-9.38,3.87,6.23,6.23,0,0,0-3.14,3.62c-.46,1.75.2,3.54.23,5.3.05,3.33-1.08,6.55-2.21,9.64-.87,2.38-1.8,5.49-4.67,6-2.51.42-2.24,4.23,0,4.82l1.67.44c3.11.82,4.44-4,1.32-4.82l-1.66-.44v4.82c3.16-.52,5.48-3.11,6.75-5.9a45.87,45.87,0,0,0,3.29-9.77,21.64,21.64,0,0,0,.5-5.2c0-.91-.21-1.8-.32-2.7-.06-.42-.16-.72.09-1a6.41,6.41,0,0,1,1.86-1.09c.73-.4,1.48-.77,2.24-1.1a32.08,32.08,0,0,1,4.76-1.6c3.11-.81,1.8-5.64-1.33-4.82Z"/><path class="cls-2" d="M48.63,74.75c3.21,0,3.22-5,0-5s-3.23,5,0,5Z"/><path class="cls-2" d="M2.77,50.69q-.09.3-.21.6l.25-.6a5,5,0,0,1-.64,1.1l.39-.5a5.82,5.82,0,0,1-.89.9l.5-.39a4.77,4.77,0,0,1-.8.52A2.48,2.48,0,0,0,.18,54.81,2.33,2.33,0,0,0,.67,56a2.34,2.34,0,0,0,1.3.9,3.77,3.77,0,0,1,.75.2l-.6-.25a3.85,3.85,0,0,1,.76.44l-.5-.39a3.7,3.7,0,0,1,.69.68l-.39-.51a4,4,0,0,1,.5.84l-.25-.6a4,4,0,0,1,.26.94l-.09-.66a4,4,0,0,1,0,.77,2.45,2.45,0,0,0,.73,1.77,2.6,2.6,0,0,0,1.44.69A2.52,2.52,0,0,0,8,59a8.82,8.82,0,0,0-.72-7.08A2.53,2.53,0,0,0,3.88,51,2.55,2.55,0,0,0,3,54.46c.11.2.21.41.31.62L3,54.49a6.47,6.47,0,0,1,.46,1.67l-.09-.66a7.31,7.31,0,0,1,0,1.62l.08-.67a6.4,6.4,0,0,1-.29,1.24l4.91.66A6.11,6.11,0,0,0,3.3,52.06l.6,4.57A7.63,7.63,0,0,0,7.59,52a2.53,2.53,0,0,0-1.75-3.08,2.55,2.55,0,0,0-3.07,1.75Z"/><path class="cls-2" d="M103.11,8.2,111.26,11a2.51,2.51,0,0,0,3.07-1.75,2.57,2.57,0,0,0-1.74-3.08l-8.15-2.82a2.51,2.51,0,0,0-3.07,1.74,2.56,2.56,0,0,0,1.74,3.08Z"/><path class="cls-2" d="M106.27,1.21A26.78,26.78,0,0,0,103.7,9a2.73,2.73,0,0,0,.25,1.92,2.54,2.54,0,0,0,1.5,1.15,2.47,2.47,0,0,0,1.92-.25,2.41,2.41,0,0,0,1.15-1.49,24.41,24.41,0,0,1,1.61-5.62l-.25.6c.22-.52.45-1,.71-1.54a2.67,2.67,0,0,0,.25-1.92,2.58,2.58,0,0,0-1.15-1.5,2.53,2.53,0,0,0-3.42.9Z"/><path class="cls-2" d="M109.59,8l3.66-.67a1.78,1.78,0,0,0,.85-.44,1.87,1.87,0,0,0,.64-.7,1.77,1.77,0,0,0,.3-.93,1.89,1.89,0,0,0,0-1,2.5,2.5,0,0,0-1.15-1.49l-.6-.26a2.5,2.5,0,0,0-1.33,0l-3.66.67a1.85,1.85,0,0,0-.85.45,1.88,1.88,0,0,0-.64.7,1.9,1.9,0,0,0-.3.93,1.86,1.86,0,0,0,0,1,2.51,2.51,0,0,0,1.15,1.5l.59.25a2.5,2.5,0,0,0,1.33,0Z"/><path class="cls-1" d="M9.65,17.74l1.4,3.88a2.5,2.5,0,0,0,.64,1.1,2,2,0,0,0,.81.52,1.88,1.88,0,0,0,1,.21,2.43,2.43,0,0,0,1.26-.34l2.51-1.71a2.7,2.7,0,0,0,1.15-1.5A2.58,2.58,0,0,0,18.13,18a2.5,2.5,0,0,0-1.5-1.15,2.47,2.47,0,0,0-1.92.25L12.2,18.79l3.67,1.5-1.4-3.88a1.94,1.94,0,0,0-.45-.85,1.88,1.88,0,0,0-.7-.64,2.5,2.5,0,0,0-3.42.9,2.44,2.44,0,0,0-.25,1.92Z"/><path class="cls-1" d="M125.27,34.8q.2.41.36.81l-.25-.59a17.27,17.27,0,0,1,1.14,4l.25.6.39.5a2.41,2.41,0,0,0,1.44.69,2.37,2.37,0,0,0,1.29-.17,2.7,2.7,0,0,0,1.2-1l1.64-2.28a2.51,2.51,0,0,0-2.83-3.68l-.59.26a2.48,2.48,0,0,0-.9.89l-1.64,2.28,4.57.6a19.16,19.16,0,0,0-1.76-5.41,2.53,2.53,0,0,0-1.49-1.15,2.6,2.6,0,0,0-1.93.25,2.53,2.53,0,0,0-1.14,1.5l-.09.66a2.43,2.43,0,0,0,.34,1.26Z"/><path class="cls-3" d="M41.31,6.08,46.13,9.9a2,2,0,0,0,.81.52,1.83,1.83,0,0,0,1,.21,2.49,2.49,0,0,0,2.5-2.5,2.49,2.49,0,0,0-.73-1.77L44.84,2.54A1.83,1.83,0,0,0,44,2a1.9,1.9,0,0,0-1-.22,2.51,2.51,0,0,0-2.5,2.5,2.42,2.42,0,0,0,.74,1.77Z"/><path class="cls-3" d="M45,10.43l.42-.18-.59.25a20.42,20.42,0,0,1,5.3-1.44l-.66.08A24.84,24.84,0,0,1,52.06,9a2.52,2.52,0,0,0,2.5-2.5A2.55,2.55,0,0,0,52.06,4a23.68,23.68,0,0,0-9.58,2.14,2.51,2.51,0,0,0-1.15,1.5,2.57,2.57,0,0,0,.25,1.92,2.5,2.5,0,0,0,1.5,1.15A2.85,2.85,0,0,0,45,10.43Z"/><path class="cls-3" d="M46.37,1.52,44.88,4.18a1.74,1.74,0,0,0-.3.93,1.85,1.85,0,0,0,0,1,1.89,1.89,0,0,0,.45.85,1.9,1.9,0,0,0,.7.65,2.51,2.51,0,0,0,1.93.25A2.56,2.56,0,0,0,49.19,6.7L50.69,4a1.9,1.9,0,0,0,.3-.93,1.86,1.86,0,0,0-.05-1,1.78,1.78,0,0,0-.44-.85,1.9,1.9,0,0,0-.7-.65,2.51,2.51,0,0,0-3.43.9Z"/><path class="cls-3" d="M128.76,66.73l2.72,6.2A2.5,2.5,0,0,0,133,74.08a2.5,2.5,0,0,0,3.08-1.75l.09-.66a2.54,2.54,0,0,0-.35-1.26l-2.71-6.2a2.48,2.48,0,0,0-1.5-1.15,2.52,2.52,0,0,0-1.92.25,2.48,2.48,0,0,0-1.15,1.49l-.09.67a2.43,2.43,0,0,0,.34,1.26Z"/><path class="cls-3" d="M131.45,73.6l5.66-3.82a2.7,2.7,0,0,0,1.15-1.5,2.53,2.53,0,0,0-.26-1.92,2.46,2.46,0,0,0-1.49-1.15,2.55,2.55,0,0,0-1.93.25l-5.65,3.83a2.67,2.67,0,0,0-1.15,1.49,2.5,2.5,0,0,0,1.75,3.08,2.48,2.48,0,0,0,1.92-.26Z"/><path class="cls-3" d="M136.36,72.14c3.22,0,3.22-5,0-5s-3.22,5,0,5Z"/><path class="cls-2" d="M73.78,77.5a7.08,7.08,0,0,1,3.5-3.38,39.82,39.82,0,0,1,6.32-2.2c4.34-1.4,8.91-4,10-8.79a2.5,2.5,0,0,0-4.82-1.33,6,6,0,0,1-3,3.78,26.54,26.54,0,0,1-6.24,2.35c-4.49,1.38-8.87,3.56-10.58,8.24a2.5,2.5,0,1,0,4.82,1.33Z"/><path class="cls-2" d="M73.51,52.1c1-3.2,2.84-6.8,6.37-7.74,3.33-.89,6.73,1.92,9.31,3.67a18,18,0,0,1,4,3.42,14.2,14.2,0,0,1,2.28,4.63,110.88,110.88,0,0,1,3.23,13,2.51,2.51,0,0,0,3.07,1.75,2.54,2.54,0,0,0,1.75-3.07c-.79-4-1.74-8-2.92-11.95-1-3.51-2.53-6.79-5.28-9.3a36.11,36.11,0,0,0-8.91-6,11.14,11.14,0,0,0-10.59.21c-3.73,2.18-5.79,6.09-7.09,10.07-1,3.06,3.82,4.38,4.82,1.33Z"/><path class="cls-2" d="M99.85,71.3q8.66,6.2,17.08,12.71a2.57,2.57,0,0,0,3.53,0,2.52,2.52,0,0,0,0-3.54Q111.54,73.56,102.37,67a2.5,2.5,0,0,0-2.52,4.32Z"/><path class="cls-2" d="M118.14,80.06,103.38,86l2.82,1.15a54.07,54.07,0,0,1-5.75-10.9,2.58,2.58,0,0,0-3.08-1.75,2.52,2.52,0,0,0-1.74,3.08,59.77,59.77,0,0,0,6.25,12.1,2.57,2.57,0,0,0,2.83,1.15l14.76-6a2.58,2.58,0,0,0,1.74-3.08,2.51,2.51,0,0,0-3.07-1.74Z"/><path class="cls-2" d="M74.89,76.58c2.64-2.22,6.65-2.06,9.81-1.4,4.57.95,8.88,2.71,13.59,2.94,2.42.12,3.48-3.57,1.26-4.66l-9.36-4.6a2.57,2.57,0,0,0-3.42.9,2.52,2.52,0,0,0,.89,3.42L97,77.78l1.26-4.66c-4.9-.24-9.43-2.44-14.26-3.1-4.54-.62-9.09,0-12.68,3a2.54,2.54,0,0,0,0,3.54,2.56,2.56,0,0,0,3.54,0Z"/><path class="cls-2" d="M74.25,49.21c2.21.62,4.47.27,6.67.72,1.92.38,3.22,2.11,4.39,3.55a24,24,0,0,1,5,11.08,2.48,2.48,0,0,0,2.75,1.79,2.55,2.55,0,0,0,2.17-2.46c1.06-10.21-7.7-17.15-15.11-22.38-2.32-1.63-5.16,2.05-3,3.92,3.92,3.46,8.74,5.82,12.41,9.56s4.37,8.6,4.82,13.61l1.84-2.41a1.88,1.88,0,0,1-2.35-.4l-3.42,3.42a10.75,10.75,0,0,1,5.11,5.3,2.58,2.58,0,0,0,3.07,1.75,2.52,2.52,0,0,0,1.75-3.08A16,16,0,0,0,93,64.89c-2-1-5,1.23-3.42,3.42a6.82,6.82,0,0,0,8,2.7,2.54,2.54,0,0,0,1.83-2.41C98.82,62.67,98,57,93.9,52.35c-3.74-4.29-9-6.73-13.24-10.45l-3,3.92c6,4.25,13.51,9.73,12.64,18.07l4.91-.66A28.82,28.82,0,0,0,88.85,50C87.27,48,85.48,46.11,83,45.32s-5-.25-7.46-.93c-3.1-.88-4.42,3.94-1.33,4.82Z"/><path class="cls-2" d="M97.53,74.15q6.89,4.25,13.57,8.8V78.63l-6.2,2.75,3.42.89-3.93-7.6a2.52,2.52,0,0,0-3.42-.9,2.56,2.56,0,0,0-.9,3.42L104,84.8a2.56,2.56,0,0,0,3.42.89l6.2-2.74a2.47,2.47,0,0,0,1.24-2.16,2.59,2.59,0,0,0-1.24-2.16q-6.69-4.55-13.56-8.8a2.52,2.52,0,0,0-3.42.9,2.55,2.55,0,0,0,.89,3.42Z"/><path d="M36,92.17A37.42,37.42,0,0,0,42.83,79.8c.39-1.23-1.54-1.75-1.93-.53a34.32,34.32,0,0,1-6.32,11.48,1,1,0,0,0,0,1.42,1,1,0,0,0,1.42,0Z"/><path d="M41.5,80.27c4.32,1.25,8-2,12-2.82A15.2,15.2,0,0,1,65.08,80a2.29,2.29,0,0,0,2.57.43A3,3,0,0,0,69,78.38a6.34,6.34,0,0,0-1.07-4.92c-2.35-3.36-6.4-4.13-10.16-4.87a15.16,15.16,0,0,1-6.12-2.19,5.31,5.31,0,0,1-2.35-4.82,1,1,0,0,0-1-1,1,1,0,0,0-1,1c-.45,3.74,2.66,6.59,5.83,7.84,3.5,1.37,7.52,1.18,10.83,3.07a6.26,6.26,0,0,1,3,3.48A3.93,3.93,0,0,1,67,78a1.24,1.24,0,0,1-.36.71c.11-.09.16,0-.07-.11l-.66-.45a17.16,17.16,0,0,0-11.06-2.9,20.32,20.32,0,0,0-6.36,1.86c-2,.9-4.23,1.86-6.46,1.22a1,1,0,0,0-.53,1.93Z"/><path d="M49.35,61.76a16.75,16.75,0,0,1,6.12-11.41c.41-.35.39-.34.88-.19a14,14,0,0,0,1.71.35c.62.1,1.24.22,1.86.27s1.14,0,1.7,0a3.08,3.08,0,0,1,.61.07s.36.15.26,0a2,2,0,0,1,.13.64,6.38,6.38,0,0,0,.26.88,4.37,4.37,0,0,0,2,2.37,3,3,0,0,0,4.46-2.18A8.9,8.9,0,0,0,69,49,11.36,11.36,0,0,0,68,45.77c-1.26-2.11-3.89-2.45-6.07-3-1.26-.33-2.51-.66-3.76-1a22.82,22.82,0,0,0-3.71-1c-2.76-.3-4.56,2.31-6.12,4.17a77.85,77.85,0,0,0-5.09,6.78c-.72,1.08,1,2.08,1.73,1q1.92-2.88,4.11-5.57c.73-.9,1.48-1.78,2.26-2.64a4.68,4.68,0,0,1,2.26-1.75c1.08-.21,2.32.41,3.33.72,1.17.34,2.34.66,3.52,1s2.35.59,3.51.91a3.65,3.65,0,0,1,2.31,1.43,10.45,10.45,0,0,1,.89,3c.21.88.57,2.09.13,2.95a1.1,1.1,0,0,1-1.6.24,3.14,3.14,0,0,1-1.21-2.27c-.46-2.3-3.19-1.7-4.9-1.93-.58-.07-1.16-.17-1.73-.26s-1-.29-1.53-.38a2.94,2.94,0,0,0-2.52,1.09,20.55,20.55,0,0,0-4.44,5.51,18,18,0,0,0-2,7.07c-.1,1.28,1.9,1.27,2,0Z"/><path d="M90,61.76A18.2,18.2,0,0,0,84.53,50.1a11.22,11.22,0,0,0-2.08-1.76c-1-.56-1.85-.06-2.85.11a20.3,20.3,0,0,1-3.29.35,4.23,4.23,0,0,0-2.91.73c-.68.66-.55,1.69-1,2.49a1.82,1.82,0,0,1-1.8,1.13c-.81-.16-.81-1.14-.77-1.79a17.28,17.28,0,0,1,.66-3.18A3.33,3.33,0,0,1,72,45.86a12,12,0,0,1,3.07-1c2.35-.61,4.67-1.31,7-2a3.13,3.13,0,0,1,1.79-.13,3.32,3.32,0,0,1,1.24.82,33.43,33.43,0,0,1,2.5,2.81,73.3,73.3,0,0,1,4.7,6.28c.72,1.07,2.45.07,1.73-1q-2.07-3.09-4.42-6c-.78-1-1.59-1.9-2.42-2.81a6.92,6.92,0,0,0-2.53-2,5.38,5.38,0,0,0-3.56.18c-1.29.39-2.57.78-3.87,1.12s-2.51.66-3.77,1a8.27,8.27,0,0,0-3.07,1.29,5.17,5.17,0,0,0-1.75,2.82,23.59,23.59,0,0,0-.76,3.43A4.52,4.52,0,0,0,68.47,54a2.87,2.87,0,0,0,2.42,1.2,3.72,3.72,0,0,0,2.7-1.3,4.7,4.7,0,0,0,.81-1.34,5.44,5.44,0,0,0,.25-.78,3.9,3.9,0,0,1,.16-.77c.15-.23,0,0,0,0s.17,0,.18,0c.2,0,.4-.08.6-.09.57,0,1.14,0,1.7,0a15.94,15.94,0,0,0,3.58-.59l.37-.11c.06,0,.29,0,.13,0a1.56,1.56,0,0,1,.54.38c.4.36.8.73,1.19,1.11a15.77,15.77,0,0,1,2.43,3A16,16,0,0,1,88,61.76c.09,1.27,2.09,1.28,2,0Z"/><path d="M67.89,45.77c.63-4.07-4-5.28-6.94-6.33l-2.78-1a25.49,25.49,0,0,0-2.75-.94,4.25,4.25,0,0,0-2.52.06,9.94,9.94,0,0,0-2.37,1.54l-4.75,3.58c-1.44,1.08-2.92,2.12-4.25,3.33a9.07,9.07,0,0,0-2.85,3.73c-.56,1.68-.85,3.47-1.26,5.18-1,4.32-2.08,8.64-3,13-.27,1.26,1.65,1.8,1.92.54.75-3.46,1.57-6.91,2.39-10.35q.65-2.64,1.27-5.28a9.21,9.21,0,0,1,1.16-3.57A17.58,17.58,0,0,1,44.61,46l4.16-3.13c1.39-1,2.74-2.21,4.21-3.15a2.27,2.27,0,0,1,1.91-.34c.85.21,1.69.57,2.51.86,1.83.66,3.67,1.3,5.5,2,1.2.45,3.31,1.35,3.06,3a1,1,0,1,0,1.93.53Z"/><path d="M34.78,67.31c-7,4-11.71,11-18.59,15.19-1.1.67-.09,2.4,1,1.73C24.08,80,28.75,73,35.79,69a1,1,0,0,0-1-1.72Z"/><path d="M102.62,90.75A34.32,34.32,0,0,1,96.3,79.27c-.39-1.22-2.32-.7-1.93.53a37.24,37.24,0,0,0,6.83,12.37,1,1,0,0,0,1.42,0,1,1,0,0,0,0-1.42Z"/><path d="M95.17,78.34c-1.92.55-3.87-.09-5.63-.85a26.45,26.45,0,0,0-5.69-2,17,17,0,0,0-11.36,2c-.4.23-.81.48-1.2.74l-.5.35c-.11.07-.4.18-.3.21s-.06-.12-.09-.18a3.38,3.38,0,0,1-.18-.44,3.65,3.65,0,0,1-.12-.93,5.38,5.38,0,0,1,2.2-4c2.89-2.34,7-2.26,10.47-3.27a11.11,11.11,0,0,0,5.24-3,6.86,6.86,0,0,0,1.93-5.31,1,1,0,0,0-1-1,1,1,0,0,0-1,1c.48,4-3.75,5.94-7,6.7-3.74.87-8,1.16-10.78,4.1a7,7,0,0,0-2.09,4.79c0,1.53.84,4,2.85,3.48a10.67,10.67,0,0,0,2.37-1.39A14.16,14.16,0,0,1,76,78a15,15,0,0,1,6.1-.75,20.47,20.47,0,0,1,6.51,2c2.24,1,4.65,1.7,7.07,1a1,1,0,0,0-.53-1.93Z"/><path d="M71.24,45.24c-.22-1.4,1.41-2.33,2.48-2.76,1.53-.63,3.13-1.14,4.68-1.7L81,39.87a4.7,4.7,0,0,1,2.43-.51,4.84,4.84,0,0,1,1.68,1L87.24,42a71.28,71.28,0,0,1,8,6.3,5.54,5.54,0,0,1,1.25,1.59,9.38,9.38,0,0,1,.5,1.74q.58,2.51,1.19,5c.94,3.92,1.88,7.84,2.73,11.79.28,1.25,2.2.72,1.93-.54-.83-3.86-1.75-7.7-2.67-11.54-.45-1.87-.89-3.74-1.34-5.61a9.12,9.12,0,0,0-.61-1.85,7.43,7.43,0,0,0-1.57-2,40,40,0,0,0-4.2-3.48L87.86,40c-1.37-1-2.85-2.57-4.66-2.66a7.39,7.39,0,0,0-2.78.61l-2.78,1-3,1.08a18.82,18.82,0,0,0-2.79,1.15,4.53,4.53,0,0,0-2.52,4.6,1,1,0,1,0,1.93-.53Z"/><path d="M101.4,69c7,4,11.72,11,18.6,15.2,1.1.67,2.1-1.06,1-1.73-6.88-4.21-11.54-11.2-18.6-15.19a1,1,0,0,0-1,1.72Z"/><path d="M102.18,6.43l4.16,1.16a1,1,0,0,0,.53-1.93L102.71,4.5a1,1,0,0,0-.53,1.93Z"/><path d="M106.13,6.52l-1.49,4.16a1,1,0,0,0,.7,1.23,1,1,0,0,0,1.23-.7l1.49-4.15a1,1,0,0,0-.7-1.23,1,1,0,0,0-1.23.69Z"/><path class="cls-3" d="M51.17,18.26c.43.29.85.58,1.26.88h0s.55.44.6.48a27.85,27.85,0,0,1,2.12,1.94c.63.64,1.22,1.31,1.79,2l.24.3-.12-.15s.43.57.46.62c.26.36.52.73.76,1.11a26.75,26.75,0,0,1,1.45,2.48c.21.4.41.8.59,1.21.06.12.2.64.32.7l-.16-.36.15.35a28.61,28.61,0,0,1,1.57,5.53,3,3,0,0,0,3.69,2.09A3.08,3.08,0,0,0,68,33.75,31.8,31.8,0,0,0,54.2,13.08a3,3,0,0,0-4.11,1.08,3.07,3.07,0,0,0,1.08,4.1Z"/><path class="cls-3" d="M98.51,8.55A29,29,0,0,0,74.43,31.93a3.25,3.25,0,0,0,.3,2.31,3,3,0,0,0,1.8,1.38c1.46.33,3.4-.44,3.69-2.09a27.61,27.61,0,0,1,.7-3c.15-.49.31-1,.48-1.45.08-.23.17-.45.26-.67a3,3,0,0,1,.15-.38c-.17.25-.2.46,0,.06a25.88,25.88,0,0,1,1.41-2.72c.26-.44.54-.88.82-1.3l.41-.59.24-.33c.13-.16.46-.45,0,0,.72-.72,1.31-1.57,2-2.29s1.57-1.32,2.3-2c-.56.56,0,0,.21-.14l.58-.41c.45-.31.91-.6,1.38-.88A27.06,27.06,0,0,1,93.87,16c.1-.05.51-.22.11-.05s.17-.07.21-.08l.76-.29c.55-.2,1.1-.38,1.66-.54a27.39,27.39,0,0,1,3.49-.74A3,3,0,0,0,101.9,13a3,3,0,0,0-1.08-4.1,3.48,3.48,0,0,0-2.31-.3Z"/><path class="cls-3" d="M96.91,42.22A45.46,45.46,0,0,1,102.58,41l.46-.07-.23,0,.7-.08,1.5-.14c1-.08,1.93-.12,2.9-.14a44.82,44.82,0,0,1,5.79.29c.09,0,.88.1.41,0s.44.07.52.08l1.38.23c1,.19,2,.41,2.95.65a3,3,0,1,0,1.59-5.78,48.66,48.66,0,0,0-25.24.35,3,3,0,0,0,1.6,5.78Z"/><path class="cls-3" d="M109.26,60.63c.73,0,1.45,0,2.18,0,.39,0,.79.1,1.18.12-.29,0-.57-.09-.11,0l.49.08c.71.14,1.42.31,2.12.51.38.11.76.24,1.13.37l.46.18c.1,0,.72.34.29.11s.09,0,.19.08l.53.26c.33.16.65.33,1,.51A19.59,19.59,0,0,1,120.53,64l.41.29c.56.4-.52-.43,0,0l.83.71a20.38,20.38,0,0,1,1.6,1.62,3,3,0,0,0,4.24,0,3.07,3.07,0,0,0,0-4.25,23.76,23.76,0,0,0-18.37-7.77,3,3,0,0,0,0,6Z"/><path class="cls-3" d="M14,59.49c1.41-.36,2.84-.66,4.29-.89l.59-.09c.58-.09-.36,0,0,0l1.06-.12q1.13-.12,2.25-.18,2.19-.12,4.38,0c.71,0,1.42.07,2.13.13l1.18.11.47.06c.8.09-.66-.1.14,0a3.28,3.28,0,0,0,2.32-.3,3,3,0,0,0,1.37-1.79c.33-1.42-.43-3.46-2.09-3.69a50.93,50.93,0,0,0-19.71,1,3,3,0,0,0-2.09,3.69A3.06,3.06,0,0,0,14,59.49Z"/><path class="cls-3" d="M19.32,28.06a25.32,25.32,0,0,1,2.69.83,2.77,2.77,0,0,0,.7.28L22.34,29l.34.15c.4.18.8.37,1.19.57a25.67,25.67,0,0,1,2.43,1.42c.37.24.73.49,1.08.74l.3.23c.26.19.2.15-.16-.13.05.13.4.33.51.42a27.41,27.41,0,0,1,3.8,3.89l-.18-.24.22.3.44.62c.25.36.49.72.71,1.1a23.72,23.72,0,0,1,1.34,2.48,3,3,0,0,0,4.1,1.07,3.07,3.07,0,0,0,1.08-4.1A28.68,28.68,0,0,0,20.92,22.27a3,3,0,0,0-1.6,5.79Z"/><path d="M107.12,8l4.31,2.17a1,1,0,1,0,1-1.73l-4.32-2.16a1,1,0,0,0-1,1.72Z"/><path d="M108,8l5-1.53a1,1,0,0,0,.69-1.23,1,1,0,0,0-1.23-.7l-5,1.53A1,1,0,1,0,108,8Z"/><path d="M108.41,6.79l.14-5.32a1,1,0,0,0-1-1,1,1,0,0,0-1,1l-.14,5.32a1,1,0,0,0,1,1,1,1,0,0,0,1-1Z"/><path d="M96,13.31l.91-.42.47-.21.14-.06.15-.06c.62-.25,1.25-.49,1.89-.71A1,1,0,1,0,99,9.92a36.52,36.52,0,0,0-4,1.67A1,1,0,0,0,94.6,13a1,1,0,0,0,1.37.36Z"/><path d="M87.41,19c.36-.31.72-.62,1.09-.92.18-.16.37-.31.57-.47l.27-.21h0l.17-.13c.77-.59,1.56-1.14,2.37-1.67a1,1,0,0,0-1-1.73A41,41,0,0,0,86,17.6,1,1,0,0,0,87.41,19Z"/><path d="M81.17,26.18l.75-1.08.4-.55.2-.26.09-.12.07-.09,0-.06.09-.12.2-.25.43-.53c.29-.35.59-.69.89-1a1,1,0,0,0-1.41-1.42,40.63,40.63,0,0,0-3.48,4.5,1,1,0,0,0,.35,1.37,1,1,0,0,0,1.37-.36Z"/><path d="M77.31,33.83c.12-.36.26-.71.39-1.06.07-.17.14-.35.22-.52L78,32.1c0,.11,0,.12,0,0a2,2,0,0,0,.11-.26c.31-.7.64-1.39,1-2.08a1,1,0,1,0-1.73-1,39.58,39.58,0,0,0-2,4.54,1,1,0,0,0,.7,1.23,1,1,0,0,0,1.23-.7Z"/><path d="M57.5,17.49a33.18,33.18,0,0,0-4.35-3.85,1,1,0,0,0-.77-.1,1,1,0,0,0-.6.46,1,1,0,0,0,.36,1.36l.27.21a.88.88,0,0,1,.15.12c-.05-.06-.11-.09,0,0l.54.43c.35.29.7.58,1,.89.68.61,1.34,1.25,2,1.92a1,1,0,0,0,1.41,0,1,1,0,0,0,0-1.42Z"/><path d="M63.5,26.46a33.53,33.53,0,0,0-2.72-4.86,1,1,0,0,0-1.36-.35,1,1,0,0,0-.36,1.36,33.47,33.47,0,0,1,2.71,4.86,1,1,0,0,0,1.37.36,1,1,0,0,0,.36-1.37Z"/><path d="M66.13,35.73a32.89,32.89,0,0,0-1-5,1,1,0,1,0-1.92.53c.22.76.41,1.53.58,2.31.08.38.16.77.22,1.16,0,.18.06.36.09.54s0,.19,0,.28.06.41,0,.18a1.16,1.16,0,0,0,.29.71,1.05,1.05,0,0,0,.71.29c.48,0,1.07-.44,1-1Z"/><path d="M42.87,4.84,46,7.67a1,1,0,0,0,1.41-1.42L44.29,3.43a1,1,0,0,0-1.42,0,1,1,0,0,0,0,1.41Z"/><path d="M47.56,7.61,49.77,3A1,1,0,0,0,48,2L45.84,6.6a1,1,0,1,0,1.72,1Z"/><path d="M48,8.06l4.48-.86A1,1,0,0,0,53.18,6,1,1,0,0,0,52,5.27l-4.48.86a1,1,0,0,0-.7,1.23,1,1,0,0,0,1.23.7Z"/><path d="M46.52,7.64l1.67,2.82a1,1,0,0,0,1.37.36,1,1,0,0,0,.35-1.37L48.25,6.63a1,1,0,0,0-1.37-.36,1,1,0,0,0-.36,1.37Z"/><path d="M46.4,6.09,42.24,8.42a1,1,0,1,0,1,1.72l4.16-2.32a1,1,0,0,0,.36-1.37,1,1,0,0,0-1.37-.36Z"/><path d="M116,38.13l1.11.13h.08l.26,0,.56.09c.72.11,1.45.25,2.17.4a1,1,0,0,0,.53-1.93,47,47,0,0,0-4.71-.74,1,1,0,0,0-1,1,1,1,0,0,0,1,1Z"/><path d="M105.7,38.16a46.53,46.53,0,0,1,5.78-.3,1,1,0,0,0,1-1,1,1,0,0,0-1-1,46.53,46.53,0,0,0-5.78.3,1,1,0,0,0-1,1,1,1,0,0,0,1,1Z"/><path d="M96.56,40.2a47.86,47.86,0,0,1,5-1.35,1,1,0,0,0,.7-1.23,1,1,0,0,0-1.23-.7,47.86,47.86,0,0,0-5,1.35,1,1,0,0,0-.7,1.23,1,1,0,0,0,1.23.7Z"/><path d="M128.44,42a26.21,26.21,0,0,1-2.2-7.27c0-.35-.14-.9.13-1.19s.47.09.64.29a4.42,4.42,0,0,1,1,3,1,1,0,0,0,1.86.5,3.75,3.75,0,0,1,1.81-1.75c.26-.11.66-.29.76-.08s-.14.67-.32.9c-.74,1-1.68,1.78-2.51,2.65l-2.72,2.86c-.89.93.52,2.34,1.41,1.41L132,39.54c1-1,2.51-2.22,2.52-3.82a2.33,2.33,0,0,0-.77-1.79,2.43,2.43,0,0,0-2.4-.3,5.59,5.59,0,0,0-3.14,2.73l1.86.5a6.5,6.5,0,0,0-1.74-4.55,2.26,2.26,0,0,0-3.94.76,4.74,4.74,0,0,0,0,2.48c.15.83.33,1.66.54,2.47a31.91,31.91,0,0,0,1.82,5,1,1,0,0,0,1.37.35,1,1,0,0,0,.36-1.36Z"/><path d="M16.23,54.78c-1.63.2-3.25.47-4.86.83a1,1,0,0,0-.7,1.23,1,1,0,0,0,1.23.69c.75-.16,1.49-.31,2.25-.44l1.1-.18.54-.07c-.23,0,0,0,.09,0l.35,0a1,1,0,0,0,1-1c0-.49-.44-1.07-1-1Z"/><path d="M25.54,54.55a47.23,47.23,0,0,0-5.32-.09,1,1,0,0,0,0,2,47.23,47.23,0,0,1,5.32.09,1,1,0,0,0,1-1,1,1,0,0,0-1-1Z"/><path d="M33.05,55.66c-1.08-.24-2.17-.45-3.27-.62a1,1,0,0,0-.77.1,1,1,0,0,0-.46.59,1,1,0,0,0,.1.78.94.94,0,0,0,.6.45q1.65.27,3.27.63a1,1,0,0,0,1.23-.69,1,1,0,0,0-.7-1.24Z"/><path d="M4.23,50.52A4.47,4.47,0,0,1,.71,54.6a1,1,0,0,0,.27,2,2.75,2.75,0,0,1,2.63,3.82A1,1,0,0,0,4,61.76a1,1,0,0,0,1.37-.36,4.84,4.84,0,0,0-.28-4.73A4.81,4.81,0,0,0,1,54.57l.27,2a6.5,6.5,0,0,0,5-6c.06-1.29-1.94-1.29-2,0Z"/><path d="M5.88,60.71A2.9,2.9,0,0,1,8.6,57.22a1,1,0,0,0,1-.87,1,1,0,0,0-.71-1.09,2.79,2.79,0,0,1-2.26-3.87A1,1,0,0,0,6.25,50a1,1,0,0,0-1.37.35A4.89,4.89,0,0,0,5,54.86a4.77,4.77,0,0,0,3.36,2.33l.26-2a4.94,4.94,0,0,0-4.65,6c.28,1.26,2.2.73,1.93-.53Z"/><path d="M24.78,25.08c-1.13-.67-2.29-1.29-3.47-1.86a1.14,1.14,0,0,0-.77-.1,1.07,1.07,0,0,0-.6.46A1,1,0,0,0,20.3,25c1.18.57,2.34,1.19,3.47,1.86a1,1,0,1,0,1-1.73Z"/><path d="M33.16,31.51a48.51,48.51,0,0,0-4.64-3.94,1,1,0,0,0-1.37.36,1,1,0,0,0,.36,1.37l.57.43c.12.09-.19-.15,0,0l.14.1.26.21c.38.3.75.61,1.12.93.73.62,1.44,1.27,2.13,1.94a1,1,0,0,0,1.41-1.42Z"/><path d="M39.28,38.89A47.36,47.36,0,0,0,36,34.49a1,1,0,0,0-1.42,0,1,1,0,0,0,0,1.42c.28.32.56.66.83,1l.39.5,0,.05,0,0a3,3,0,0,0,.22.28c.51.69,1,1.4,1.49,2.12a1,1,0,1,0,1.73-1Z"/><path d="M15,22.9a10.09,10.09,0,0,1-1.92-5.06c0-.22,0-.44,0-.65,0,0,0-.31,0-.11l0-.14c0-.07,0-.06,0,0l0-.08A.4.4,0,0,1,13,17a1.19,1.19,0,0,1-.33,0,2.67,2.67,0,0,1,.36.34,4.36,4.36,0,0,1,1,2.24,1,1,0,0,0,.83.72,1,1,0,0,0,1-.48,6.35,6.35,0,0,1,.74-.92l.24-.23c.13-.12,0,0,.14-.11a1.27,1.27,0,0,1,.44-.22c.07,0,.26,0,.08,0a2.61,2.61,0,0,1,.28,0c-.22,0,.05,0,.09,0,.21,0-.06-.06.1,0a1.09,1.09,0,0,1,.23.14c-.16-.13,0,0,.05.07-.14-.15,0,0,0,.08-.05-.11-.05-.11,0,0,0-.12,0-.14,0-.06s0,.06,0,0c0,.11,0,.13,0,.08s-.15.24-.07.13a4,4,0,0,1-.41.4l-.13.1c.06,0,.05,0,0,0l-.35.26-.69.52-2.81,2.14a1,1,0,0,0-.36,1.37,1,1,0,0,0,1.36.35l3.57-2.7a6,6,0,0,0,1.55-1.43,2.14,2.14,0,0,0,.21-2A2.72,2.72,0,0,0,17,16.43a5.33,5.33,0,0,0-2.89,2.44l1.83.24a6.15,6.15,0,0,0-1.74-3.34,1.89,1.89,0,0,0-2.18-.52,1.92,1.92,0,0,0-.94,1.52,7,7,0,0,0,.08,1.89,11.25,11.25,0,0,0,.4,1.81,11.66,11.66,0,0,0,1.71,3.44,1,1,0,0,0,1.37.36A1,1,0,0,0,15,22.9Z"/><path d="M122.78,63.12c.31.2.61.41.91.63l.45.33.1.08c.11.08-.15-.12,0,0l.23.18c.58.46,1.14.94,1.68,1.45a1,1,0,0,0,1.42,0,1,1,0,0,0,0-1.41,28.68,28.68,0,0,0-3.73-3,1,1,0,0,0-1.37.36,1,1,0,0,0,.36,1.37Z"/><path d="M115.56,59.7c.59.18,1.18.37,1.75.59l.84.33.19.08c-.27-.13,0,0,.07,0l.43.19a1,1,0,0,0,.77.1,1,1,0,0,0,.6-.46,1,1,0,0,0-.36-1.36,29.39,29.39,0,0,0-3.76-1.43,1,1,0,0,0-1.23.7,1,1,0,0,0,.7,1.23Z"/><path d="M108.43,58.54q1.53,0,3.06.24l-.27,0h.06a1.12,1.12,0,0,0,.78-.1,1.07,1.07,0,0,0,.46-.6,1,1,0,0,0-.11-.77.94.94,0,0,0-.59-.46,32.3,32.3,0,0,0-3.39-.29,1,1,0,0,0-1,1,1,1,0,0,0,1,1Z"/><path d="M130.06,64.76l3,9.32c.39,1.22,2.32.7,1.92-.53l-3-9.32c-.39-1.22-2.32-.7-1.93.53Z"/><path d="M129.5,72.76l7-4.8a1,1,0,1,0-1-1.72l-7,4.79a1,1,0,0,0-.36,1.37,1,1,0,0,0,1.37.36Z"/><path d="M129.29,69.25l7.31,2a1,1,0,0,0,.53-1.93l-7.31-2a1,1,0,1,0-.53,1.93Z"/></g></g></svg>